
<svg width="1169px" height="307px" viewBox="0 0 1169 307" version="1.1" xmlns="http://www.w3.org/2000/svg" xmlns:xlink="http://www.w3.org/1999/xlink">
    <!-- Generator: Sketch 46.2 (44496) - http://www.bohemiancoding.com/sketch -->
    <desc>Created with Sketch.</desc>
    <defs></defs>
    <g id="Page-1" stroke="none" stroke-width="1" fill="none" fill-rule="evenodd">
        <g id="Group-2" fill="#FFFFFF">
            <g id="Group-4" transform="translate(366.000000, 103.000000)">
                <path d="M119,102.5 C120.5,106.25 120.75,108.75 113.75,108.25 C110,108 105.25,108 99.75,108.5 C104.75,131.75 74.5,154 61.75,157.5 C56.25,159 50,160.25 43.25,160.25 C34.5,160.25 26,158.25 18.25,152.25 C8.75,145.5 0.75,134 0.75,113.25 C0.75,60 51.5,12.75 79.75,3 C87,0.5 92.5,0 98,0 C104.5,0 110.75,1.75 115,4.75 C127,13.5 130.25,25.25 130.25,32 C130.25,35.75 129.25,40.25 127,45.5 C124.25,52 120.25,61.75 117.5,69 C116.25,72.25 113.25,74.75 108.5,71 C103.75,67.25 99.5,62.25 99.5,54.5 C99.5,51.75 99.75,49 101.75,43.75 C108.75,25.75 111.25,18.75 108.5,16 C101.25,8.5 63.75,30 41.25,64.25 C28,84.5 23.25,105.75 23.25,121.75 C23.25,141 29.5,147.5 37.5,147.5 C50.75,147.5 68.5,133.75 80.25,111.75 C73.75,113 67.75,113.75 62.75,114.25 C49.75,115.25 40.25,109.5 36.5,101.75 C35,98 36.25,95.5 41.25,95.5 C51.25,95.25 61.25,93.5 70.5,91.75 C79,90.5 86.75,89 94.25,89 C108,88.75 115.5,94.5 119,102.5 Z" id="Path"></path>
                <path d="M131.5,96.75 C151.5,68 172,56.25 184.75,56.25 C193.75,56.25 199.25,60.75 201.5,67.25 L206.25,59.5 C209.25,54.5 213.5,54.25 216.5,57.75 C220.75,62.75 223,73.75 216.5,86.75 C210,100.5 189,127.75 189,144.5 C189,148.25 190,150.5 192.5,150.5 C201.5,150.5 214,133.5 222.25,117.25 C225,112.25 227.25,112 229.75,117.25 C230.75,119.5 232.25,126.25 228.75,133.5 C222.25,147.25 206.25,160.5 191,160.5 C178.5,160.5 171.25,154 169.25,144.75 C162,151.75 150.75,159.5 140.75,159.5 C126,159.5 118,148.75 118,134 C118,123.25 122.5,109.25 131.5,96.75 Z M144,148.5 C152.25,148.5 163.75,133.25 176,112.25 C185.75,95.25 190.25,83 190.25,76.5 C190.25,73.5 189.75,71.75 187.25,71.75 C182.25,71.75 165,87.5 152.25,108 C144.75,119.75 140.5,133 140.5,141 C140.5,145.5 141.5,148.5 144,148.5 Z" id="Combined-Shape"></path>
                <path d="M263.5,58.25 C265.75,62 267,66.25 267,70.25 C267,72.25 266.75,74.5 266.25,77 C277,66.5 291,57 299,57 C307,57 312.25,66 312.25,76.5 C323.5,66.5 336.75,58 344.75,58.25 C352,58.5 356,65.25 356,73.5 C356,82 350.75,93.5 340.5,109.25 C333.5,120 327,131 327,139.75 C327,145.5 329.5,149.5 333.5,149.5 C341.25,149.5 353.5,132 362.75,116.75 C365,113 367.5,112.75 369.75,115 C372.5,117.75 372.75,127.25 369.75,133 C362.75,147.5 345,160 329.5,160 C312.5,160 303.25,150.75 303.25,137.25 C303.25,132.75 304.25,127.25 307,121 C311,112.5 319.25,99 325,90 C330.5,81.75 336.5,74.25 334.5,74.25 C332.5,74.25 327.25,76.75 312.5,91.5 C293,111 281,134.75 270.5,158 C268,162.75 264.5,163.5 260.5,159.5 C256.75,155.75 255,152.25 255,145.75 C255,141.5 257,133.5 259.5,127.25 C263,118.25 271.25,104.75 278,94.25 C284.75,83 291.75,73.5 289.5,73.5 C287.5,73.5 277.75,79 262.75,95.5 C248.75,110.5 237.25,133.25 227.5,156.25 C225.75,160.25 223,161.75 218.75,158 C215.25,155 212.75,150.5 212.75,144.75 C212.75,141.25 213.5,137 215.5,131.25 C220.75,116.25 238.75,81.5 254,58.25 C257.25,53.5 261,53.75 263.5,58.25 Z" id="Path"></path>
                <path d="M444,80.75 C444,95.75 427.25,122 405.25,122 C399.25,122 393.25,120.25 387.5,116.5 C386,121.5 385.25,126.75 385.25,131.25 C385.25,142.25 389.75,150 397.25,150 C416.25,150 433,131.5 443.25,116 C446,112 449.25,111.5 451.25,116.5 C452,118.75 452.25,126 447.75,132.75 C437.25,148 417.25,159.75 397.75,160 C374.5,160.25 361.75,145 361.75,125 C361.75,116 364.25,106.25 369.5,96.25 C382.5,69.75 402.75,56.5 417.25,56.5 C420.75,56.5 423.5,57 426,58.5 C433,62.5 438,66.5 441.5,71.5 C443,73.75 444,77.5 444,80.75 Z M425.25,70.75 C421.5,67.75 403,83 391,107 C393,108.25 394.75,108.75 396.5,108.75 C402.5,108.75 410.5,101.25 415.5,94.5 C422.75,84.75 428,73 425.25,70.75 Z" id="Combined-Shape"></path>
                <path d="M522,157.75 C519.25,162 516.5,162.5 513.5,158.5 C498,138 486,122 476,110.75 C469.75,123 463.25,137.25 455.75,155.75 C454,160.5 451.25,161 447.5,157.25 C444.75,154.25 442.75,150.25 442.75,144 C442.75,140.5 443.25,136 444.5,131.5 C450.75,109.75 472.75,64.25 494.75,30 C486.5,28.5 483,25 480,19.75 C478,16.25 479.25,14.25 484.5,13.5 C494.5,12 504,9.25 513,6.25 C522.5,3.25 531.25,0.75 540.5,0.25 C553.75,-0.25 566,5.25 572.25,21 C579,37.75 573.75,52 564.5,64.75 C551.75,82 526,97.25 498.75,104.25 C507.75,115 516.25,127 521,136.25 C523.25,140.5 524.5,145.25 524.5,149.25 C524.5,152.25 523.5,155.25 522,157.75 Z M525.5,25.25 L515.75,28.5 C515.5,35.5 512.5,44.25 506.25,56 C499.5,68.5 493.25,79 488.75,86.75 C538.75,74 563.25,41 556.75,24.5 C555.25,20.5 552.5,19.25 548.75,19.25 C543,19.25 533.5,22.5 525.5,25.25 Z" id="Combined-Shape"></path>
                <path d="M638.5,80.75 C638.5,95.75 621.75,122 599.75,122 C593.75,122 587.75,120.25 582,116.5 C580.5,121.5 579.75,126.75 579.75,131.25 C579.75,142.25 584.25,150 591.75,150 C610.75,150 627.5,131.5 637.75,116 C640.5,112 643.75,111.5 645.75,116.5 C646.5,118.75 646.75,126 642.25,132.75 C631.75,148 611.75,159.75 592.25,160 C569,160.25 556.25,145 556.25,125 C556.25,116 558.75,106.25 564,96.25 C577,69.75 597.25,56.5 611.75,56.5 C615.25,56.5 618,57 620.5,58.5 C627.5,62.5 632.5,66.5 636,71.5 C637.5,73.75 638.5,77.5 638.5,80.75 Z M619.75,70.75 C616,67.75 597.5,83 585.5,107 C587.5,108.25 589.25,108.75 591,108.75 C597,108.75 605,101.25 610,94.5 C617.25,84.75 622.5,73 619.75,70.75 Z" id="Combined-Shape"></path>
                <path d="M718.5,80.75 C718.5,95.75 701.75,122 679.75,122 C673.75,122 667.75,120.25 662,116.5 C660.5,121.5 659.75,126.75 659.75,131.25 C659.75,142.25 664.25,150 671.75,150 C690.75,150 707.5,131.5 717.75,116 C720.5,112 723.75,111.5 725.75,116.5 C726.5,118.75 726.75,126 722.25,132.75 C711.75,148 691.75,159.75 672.25,160 C649,160.25 636.25,145 636.25,125 C636.25,116 638.75,106.25 644,96.25 C657,69.75 677.25,56.5 691.75,56.5 C695.25,56.5 698,57 700.5,58.5 C707.5,62.5 712.5,66.5 716,71.5 C717.5,73.75 718.5,77.5 718.5,80.75 Z M699.75,70.75 C696,67.75 677.5,83 665.5,107 C667.5,108.25 669.25,108.75 671,108.75 C677,108.75 685,101.25 690,94.5 C697.25,84.75 702.5,73 699.75,70.75 Z" id="Combined-Shape"></path>
                <path d="M802.75,22 C802.75,25.5 802.5,28.25 801.25,32.5 C793.5,62.25 766.25,91.75 744.25,106.5 C739.25,119.25 736,130.5 736,139.25 C736,145.25 737.5,149.5 740.75,149.5 C752.25,149.5 766.75,132.75 776.25,114.75 C779.5,108.5 785,108.5 786.75,115 C787.75,118.75 787.5,124.5 784.25,131.25 C780.5,138.75 762,159.25 741,159.25 C725.75,159.25 716.25,150.5 716.25,133.25 C716.25,129 716.75,124 718,119 C727.75,77.5 756,31.25 780.5,5.5 C785.25,0.75 789.75,-0.75 794.5,3.75 C800,8.5 802.75,15.5 802.75,22 Z M788.75,28.25 C787.75,27.75 781.25,37.5 772.75,52.25 C766.25,63.25 755.25,82 753.5,86.25 C764.25,75.75 772.75,64.25 778.5,54.5 C787,40.25 790.25,29.25 788.75,28.25 Z" id="Combined-Shape"></path>
            </g>
            <path d="M223.210565,53.9363654 C233.808512,51.4717266 244.351689,48.9797029 254.867482,46.5150641 C269.655314,43.0645698 269.710084,42.3525631 249.582201,28.0028883 C239.340257,20.6637417 238.491326,20.6637417 230.714021,22.4985283 C219.97915,24.9631671 209.299049,27.5099605 198.564178,29.9745993 C188.459158,32.3844684 188.021,34.438334 203.849458,48.4867752 C212.557849,56.2640798 214.392636,55.9902311 223.210565,53.9363654 Z M106.112838,81.4033955 C115.50585,79.2126055 124.981017,76.9670457 134.456184,74.7762557 C148.449855,71.4626857 148.860628,70.3946756 129.225673,56.3462345 C117.915719,48.2129264 117.915719,48.9249332 106.468841,51.608651 C97.0758289,53.8542108 87.6006619,56.0450008 78.125495,58.3179455 C64.487827,61.4945911 64.049669,62.9733743 83.3560062,76.7479667 C94.0908774,84.4431167 95.0219632,84.0323436 106.112838,81.4033955 Z M17.6870748,102.106361 C31.269973,98.5189427 30.3388873,97.4509326 15.7153637,86.9899102 C9.14299361,82.2523267 8.43098685,82.4166359 10.6217769,90.8785625 C13.4698039,101.914667 13.8805771,103.174372 17.6870748,102.106361 Z M230.084169,119.221909 C241.175044,119.221909 252.183764,119.221909 263.302023,119.221909 C277.706468,119.221909 277.843392,120.700692 262.288783,138.446091 C254.374554,147.4831 253.689932,148.112952 243.858762,148.112952 C233.315585,148.112952 222.717638,148.112952 212.201846,148.112952 C197.770016,148.112952 197.550937,146.688939 213.105546,128.88877 C221.1567,119.632682 221.457933,119.221909 230.084169,119.221909 Z M104.332821,119.221909 C116.080932,119.221909 127.801659,119.221909 139.549771,119.221909 C153.899446,119.221909 153.954215,120.782847 138.618685,138.363937 C130.704456,147.400946 132.484473,148.112952 120.599437,148.112952 C109.919335,148.112952 99.1844643,148.112952 88.4495931,148.112952 C74.0177637,148.112952 73.5248359,146.990172 89.353294,128.88877 C97.0758289,120.07084 97.705681,119.221909 104.332821,119.221909 Z M18.8372395,119.221909 C34.7204673,119.221909 35.4324741,119.851761 21.2197237,136.666074 C15.8522881,143.019365 15.3593603,142.252589 15.3593603,134.064511 C15.3593603,120.344689 15.1676662,119.221909 18.8372395,119.221909 Z M44.8254864,112.019686 C132.183239,112.019686 219.540992,112.019686 306.898745,112.019686 C319.194554,112.019686 321.24842,113.361545 321.24842,126.424131 C321.24842,181.823734 321.24842,237.195952 321.24842,292.67771 C321.24842,303.960279 321.24842,307 306.898745,307 C212.119691,307 117.340637,307 22.5889675,307 C9.71807599,307 8.15713809,304.179358 8.15713809,292.67771 C8.15713809,234.512235 8.15713809,176.456298 8.15713809,118.372977 C8.15713809,107.145179 4.13156139,94.8493694 1.50261334,83.8132646 C-1.53710784,70.8876034 -0.879870828,69.5457445 12.1827148,66.4238686 C104.49713,44.6802775 196.729391,22.9093015 288.934267,1.1657103 C302.161162,-1.9561655 302.927938,0.316779163 307.884601,18.8837248 C313.197266,38.5186805 312.129256,40.161773 298.902361,43.3384186 C205.191317,65.4380131 138.043603,80.855698 44.4968679,103.311296 C28.8053342,107.063024 28.8053342,112.019686 44.8254864,112.019686 Z M211.830439,190 L114.99285,190 C93.9642492,190 77,206.964249 77,227.99285 C77,249.02145 93.9642492,265.9857 114.99285,265.9857 C129.483146,265.9857 142.206333,257.856997 148.567926,245.840654 L178.432074,245.840654 C184.793667,257.856997 197.516854,265.9857 212.00715,265.9857 C233.035751,265.9857 250,249.02145 250,227.99285 C249.823289,206.964249 232.85904,190 211.830439,190 Z M129.659857,233.470889 L118.88049,233.470889 L118.88049,244.250255 L108.101124,244.250255 L108.101124,233.470889 L97.3217569,233.470889 L97.3217569,222.691522 L108.101124,222.691522 L108.101124,211.912155 L118.88049,211.912155 L118.88049,222.691522 L129.659857,222.691522 L129.659857,233.470889 Z M200.874362,234.707865 C197.693565,234.707865 195.219612,232.057201 195.219612,229.053115 C195.219612,226.04903 197.870276,223.398366 200.874362,223.398366 C204.055158,223.398366 206.529111,226.04903 206.529111,229.053115 C206.529111,232.057201 204.055158,234.707865 200.874362,234.707865 Z M205.822268,216.506639 C205.822268,213.325843 208.472932,210.85189 211.477017,210.85189 C214.657814,210.85189 217.131767,213.502554 217.131767,216.506639 C217.131767,219.510725 214.481103,222.161389 211.477017,222.161389 C208.296221,222.3381 205.822268,219.687436 205.822268,216.506639 Z M213.244127,245.310521 C210.06333,245.310521 207.589377,242.659857 207.589377,239.655771 C207.589377,236.651685 210.240041,234.001021 213.244127,234.001021 C216.424923,234.001021 218.898876,236.651685 218.898876,239.655771 C218.898876,242.659857 216.424923,245.310521 213.244127,245.310521 Z M223.846782,232.940756 C220.665986,232.940756 218.192033,230.290092 218.192033,227.286006 C218.192033,224.28192 220.842697,221.631256 223.846782,221.631256 C227.027579,221.631256 229.501532,224.28192 229.501532,227.286006 C229.501532,230.290092 227.027579,232.940756 223.846782,232.940756 Z" id="Combined-Shape"></path>
        </g>
    </g>
</svg>