<?xml version="1.0" encoding="UTF-8"?>
<svg width="671px" height="156px" viewBox="0 0 671 156" version="1.1" xmlns="http://www.w3.org/2000/svg" xmlns:xlink="http://www.w3.org/1999/xlink">
    <!-- Generator: Sketch 46.2 (44496) - http://www.bohemiancoding.com/sketch -->
    <title>Group 3</title>
    <desc>Created with Sketch.</desc>
    <defs></defs>
    <g id="Page-1" stroke="none" stroke-width="1" fill="none" fill-rule="evenodd">
        <g id="Group-3" transform="translate(3.000000, 3.000000)">
            <g id="Group-2" stroke-linecap="round" stroke-width="6" stroke="#FFFFFF" stroke-linejoin="round">
                <g id="play-movie-5078_65852e8b-8007-409d-b325-72e8515ea14f">
                    <path d="M180,36 L180,12 C180,5.372583 174.627417,0 168,0 L12,0 C5.372583,0 1.33226763e-15,5.372583 0,12 L0,36 M60,0 L24,36 M108,0 L72,36 M156,0 L120,36" id="Shape"></path>
                    <path d="M0,36 L0,138 C1.33226763e-15,144.627417 5.372583,150 12,150 L168,150 C174.627417,150 180,144.627417 180,138 L180,36 L0,36 Z" id="Shape"></path>
                </g>
                <g id="game-controller-1792_89f913ab-dc66-4d92-a426-9733a61890bb" transform="translate(34.000000, 36.000000)">
                    <path d="M79.1639755,78.7123152 L88.7561975,91.7991006 C92.2247188,97.1648072 99.0794632,99.2637067 104.984252,96.7680759 C110.889041,94.2724452 114.123981,87.9091893 112.642711,81.7035804 L104.931317,41.5084537 C103.104933,31.2142882 94.368234,23.5380145 83.8660451,23 L30.0743688,23 C19.1435404,23.0134211 9.79348835,30.8108804 7.88060025,41.5084537 L0.357288881,81.8905345 C-1.12398093,88.0961434 2.11095871,94.4593993 8.01574777,96.95503 C13.9205368,99.4506608 20.7752812,97.3517613 24.2438025,91.9860547 L33.8360245,78.8992693 M45.872413,71.4976526 L66.9395042,71.4976526" id="Shape"></path>
                    <circle id="Oval" cx="69.5" cy="42.5" r="5.5"></circle>
                    <circle id="Oval" cx="87.5" cy="46.5" r="5.5"></circle>
                    <path d="M29.5,37 L29.5,52 M22,44.5 L37,44.5" id="Shape"></path>
                    <path d="M56,22 L56,0" id="Shape"></path>
                    <circle id="Oval" cx="35.5" cy="69.5" r="9.5"></circle>
                    <circle id="Oval" cx="76.5" cy="69.5" r="9.5"></circle>
                </g>
            </g>
            <path d="M226.9,111.592 C221.779974,108.679985 217.812014,104.616026 214.996,99.4 C212.179986,94.1839739 210.772,88.2480333 210.772,81.592 C210.772,74.8079661 212.243985,68.7920262 215.188,63.544 C218.132015,58.2959738 222.147975,54.2320144 227.236,51.352 C232.324025,48.4719856 237.971969,47.032 244.18,47.032 C249.172025,47.032 253.539981,47.6399939 257.284,48.856 C261.028019,50.0720061 264.627983,51.7679891 268.084,53.944 C268.596003,54.2000013 269.043998,54.6479968 269.428,55.288 C269.812002,55.9280032 270.004,56.6319962 270.004,57.4 C270.004,58.4880054 269.636004,59.4159962 268.9,60.184 C268.163996,60.9520038 267.188006,61.336 265.972,61.336 C265.267996,61.336 264.596003,61.1760016 263.956,60.856 C260.947985,59.063991 257.940015,57.7200045 254.932,56.824 C251.923985,55.9279955 248.660018,55.48 245.14,55.48 C240.275976,55.48 235.89202,56.5039898 231.988,58.552 C228.08398,60.6000102 225.028011,63.5919803 222.82,67.528 C220.611989,71.4640197 219.508,76.1519728 219.508,81.592 C219.508,86.584025 220.54799,91.0479803 222.628,94.984 C224.70801,98.9200197 227.71598,102.023989 231.652,104.296 C235.58802,106.568011 240.243973,107.704 245.62,107.704 C251.63603,107.704 257.235974,106.296014 262.42,103.48 L262.42,86.104 L246.58,86.104 C245.491995,86.104 244.564004,85.7200038 243.796,84.952 C243.027996,84.1839962 242.644,83.2560054 242.644,82.168 C242.644,81.0799946 243.027996,80.1520038 243.796,79.384 C244.564004,78.6159962 245.491995,78.232 246.58,78.232 L265.492,78.232 C266.772006,78.232 267.859996,78.6799955 268.756,79.576 C269.652004,80.4720045 270.1,81.5599936 270.1,82.84 L270.1,104.632 C270.1,105.976007 269.764003,107.175995 269.092,108.232 C268.419997,109.288005 267.540005,110.071997 266.452,110.584 C259.283964,114.168018 251.956037,115.96 244.468,115.96 C237.875967,115.96 232.020026,114.504015 226.9,111.592 Z M290.404,114.232 C288.003988,113.079994 286.100007,111.400011 284.692,109.192 C283.283993,106.983989 282.58,104.440014 282.58,101.56 C282.58,96.8239763 284.451981,93.0480141 288.196,90.232 C291.940019,87.4159859 297.427964,86.008 304.66,86.008 L316.276,86.008 L316.276,85.24 C316.276,81.0159789 315.23601,77.9760093 313.156,76.12 C311.07599,74.2639907 307.828022,73.336 303.412,73.336 C300.979988,73.336 298.820009,73.5279981 296.932,73.912 C295.043991,74.2960019 292.948012,74.8719962 290.644,75.64 C290.131997,75.7680006 289.716002,75.832 289.396,75.832 C288.435995,75.832 287.604004,75.4800035 286.9,74.776 C286.195996,74.0719965 285.844,73.2080051 285.844,72.184 C285.844,70.4559914 286.675992,69.2400035 288.34,68.536 C293.780027,66.2319885 299.315972,65.08 304.948,65.08 C309.364022,65.08 313.091985,65.975991 316.132,67.768 C319.172015,69.560009 321.411993,71.8799858 322.852,74.728 C324.292007,77.5760142 325.012,80.6639834 325.012,83.992 L325.012,111.16 C325.012,112.376006 324.580004,113.399996 323.716,114.232 C322.851996,115.064004 321.812006,115.48 320.596,115.48 C319.379994,115.48 318.356004,115.064004 317.524,114.232 C316.691996,113.399996 316.276,112.376006 316.276,111.16 L316.276,108.664 C311.539976,113.528024 305.524036,115.96 298.228,115.96 C295.411986,115.96 292.804012,115.384006 290.404,114.232 Z M309.652,106.216 C312.276013,104.839993 314.483991,103.12801 316.276,101.08 L316.276,93.016 L305.812,93.016 C296.147952,93.016 291.316,95.5439747 291.316,100.6 C291.316,102.904012 292.099992,104.759993 293.668,106.168 C295.236008,107.576007 297.843982,108.28 301.492,108.28 C304.308014,108.28 307.027987,107.592007 309.652,106.216 Z M340.948,114.232 C340.115996,113.399996 339.7,112.376006 339.7,111.16 L339.7,69.976 C339.7,68.7599939 340.115996,67.7200043 340.948,66.856 C341.780004,65.9919957 342.803994,65.56 344.02,65.56 C345.236006,65.56 346.275996,65.9919957 347.14,66.856 C348.004004,67.7200043 348.436,68.7599939 348.436,69.976 L348.436,73.912 C350.228009,71.3519872 352.387987,69.2400083 354.916,67.576 C357.444013,65.9119917 360.72398,65.08 364.756,65.08 C368.340018,65.08 371.411987,66.0399904 373.972,67.96 C376.532013,69.8800096 378.355995,72.2159862 379.444,74.968 C383.41202,68.375967 389.299961,65.08 397.108,65.08 C400.692018,65.08 403.683988,65.975991 406.084,67.768 C408.484012,69.560009 410.259994,71.8639859 411.412,74.68 C412.564006,77.4960141 413.14,80.4399846 413.14,83.512 L413.14,111.16 C413.14,112.376006 412.708004,113.399996 411.844,114.232 C410.979996,115.064004 409.940006,115.48 408.724,115.48 C407.507994,115.48 406.484004,115.064004 405.652,114.232 C404.819996,113.399996 404.404,112.376006 404.404,111.16 L404.404,85.24 C404.404,81.0799792 403.668007,78.0240098 402.196,76.072 C400.723993,74.1199902 398.196018,73.144 394.612,73.144 C391.347984,73.144 388.644011,73.9919915 386.5,75.688 C384.355989,77.3840085 382.452008,79.6079862 380.788,82.36 L380.788,111.16 C380.788,112.376006 380.356004,113.399996 379.492,114.232 C378.627996,115.064004 377.588006,115.48 376.372,115.48 C375.155994,115.48 374.132004,115.064004 373.3,114.232 C372.467996,113.399996 372.052,112.376006 372.052,111.16 L372.052,85.24 C372.052,81.0799792 371.316007,78.0240098 369.844,76.072 C368.371993,74.1199902 365.844018,73.144 362.26,73.144 C358.995984,73.144 356.292011,73.9919915 354.148,75.688 C352.003989,77.3840085 350.100008,79.6079862 348.436,82.36 L348.436,111.16 C348.436,112.376006 348.004004,113.399996 347.14,114.232 C346.275996,115.064004 345.236006,115.48 344.02,115.48 C342.803994,115.48 341.780004,115.064004 340.948,114.232 Z M431.428,109.288 C427.043978,104.839978 424.852,98.5840403 424.852,90.52 C424.852,85.9759773 425.683992,81.7840192 427.348,77.944 C429.012008,74.1039808 431.571983,71.0000118 435.028,68.632 C438.484017,66.2639882 442.739975,65.08 447.796,65.08 C452.532024,65.08 456.627983,66.183989 460.084,68.392 C463.540017,70.600011 466.163991,73.5439816 467.956,77.224 C469.748009,80.9040184 470.644,84.9199782 470.644,89.272 C470.644,90.4880061 470.244004,91.5119958 469.444,92.344 C468.643996,93.1760042 467.572007,93.592 466.228,93.592 L433.684,93.592 C434.196003,98.0720224 435.859986,101.559988 438.676,104.056 C441.492014,106.552012 445.427975,107.8 450.484,107.8 C453.172013,107.8 455.52399,107.544003 457.54,107.032 C459.55601,106.519997 461.52399,105.784005 463.444,104.824 C463.956003,104.567999 464.531997,104.44 465.172,104.44 C466.196005,104.44 467.091996,104.791996 467.86,105.496 C468.628004,106.200004 469.012,107.095995 469.012,108.184 C469.012,109.592007 468.180008,110.775995 466.516,111.736 C464.019988,113.144007 461.556012,114.199996 459.124,114.904 C456.691988,115.608004 453.556019,115.96 449.716,115.96 C441.907961,115.96 435.812022,113.736022 431.428,109.288 Z M462.004,86.488 C461.811999,83.3519843 460.996007,80.7280106 459.556,78.616 C458.115993,76.5039894 456.340011,74.952005 454.228,73.96 C452.115989,72.967995 449.972011,72.472 447.796,72.472 C445.619989,72.472 443.476011,72.967995 441.364,73.96 C439.251989,74.952005 437.492007,76.5039894 436.084,78.616 C434.675993,80.7280106 433.876001,83.3519843 433.684,86.488 L462.004,86.488 Z M485.14,114.232 C484.307996,113.399996 483.892,112.376006 483.892,111.16 L483.892,52.408 C483.892,51.1919939 484.307996,50.1520043 485.14,49.288 C485.972004,48.4239957 486.995994,47.992 488.212,47.992 L510.58,47.992 C519.284044,47.992 525.811978,49.7839821 530.164,53.368 C534.516022,56.9520179 536.692,61.6559709 536.692,67.48 C536.692,71.3200192 535.620011,74.8239842 533.476,77.992 C531.331989,81.1600158 528.21202,83.447993 524.116,84.856 C528.724023,86.0720061 531.875992,88.9359774 533.572,93.448 C535.268008,97.9600226 536.116,102.391978 536.116,106.744 L536.116,111.16 C536.116,112.376006 535.700004,113.399996 534.868,114.232 C534.035996,115.064004 533.012006,115.48 531.796,115.48 C530.451993,115.48 529.380004,115.080004 528.58,114.28 C527.779996,113.479996 527.38,112.440006 527.38,111.16 L527.38,108.28 C527.38,105.079984 527.092003,102.120014 526.516,99.4 C525.939997,96.6799864 524.564011,94.2480107 522.388,92.104 C520.211989,89.9599893 516.916022,88.888 512.5,88.888 L492.628,88.888 L492.628,111.16 C492.628,112.376006 492.196004,113.399996 491.332,114.232 C490.467996,115.064004 489.428006,115.48 488.212,115.48 C486.995994,115.48 485.972004,115.064004 485.14,114.232 Z M510.004,80.632 C515.508028,80.632 519.875984,79.5440109 523.108,77.368 C526.340016,75.1919891 527.956,72.1200198 527.956,68.152 C527.956,64.3119808 526.564014,61.3680102 523.78,59.32 C520.995986,57.2719898 516.244034,56.248 509.524,56.248 L492.628,56.248 L492.628,80.632 L510.004,80.632 Z M554.116,109.288 C549.731978,104.839978 547.54,98.5840403 547.54,90.52 C547.54,85.9759773 548.371992,81.7840192 550.036,77.944 C551.700008,74.1039808 554.259983,71.0000118 557.716,68.632 C561.172017,66.2639882 565.427975,65.08 570.484,65.08 C575.220024,65.08 579.315983,66.183989 582.772,68.392 C586.228017,70.600011 588.851991,73.5439816 590.644,77.224 C592.436009,80.9040184 593.332,84.9199782 593.332,89.272 C593.332,90.4880061 592.932004,91.5119958 592.132,92.344 C591.331996,93.1760042 590.260007,93.592 588.916,93.592 L556.372,93.592 C556.884003,98.0720224 558.547986,101.559988 561.364,104.056 C564.180014,106.552012 568.115975,107.8 573.172,107.8 C575.860013,107.8 578.21199,107.544003 580.228,107.032 C582.24401,106.519997 584.21199,105.784005 586.132,104.824 C586.644003,104.567999 587.219997,104.44 587.86,104.44 C588.884005,104.44 589.779996,104.791996 590.548,105.496 C591.316004,106.200004 591.7,107.095995 591.7,108.184 C591.7,109.592007 590.868008,110.775995 589.204,111.736 C586.707988,113.144007 584.244012,114.199996 581.812,114.904 C579.379988,115.608004 576.244019,115.96 572.404,115.96 C564.595961,115.96 558.500022,113.736022 554.116,109.288 Z M584.692,86.488 C584.499999,83.3519843 583.684007,80.7280106 582.244,78.616 C580.803993,76.5039894 579.028011,74.952005 576.916,73.96 C574.803989,72.967995 572.660011,72.472 570.484,72.472 C568.307989,72.472 566.164011,72.967995 564.052,73.96 C561.939989,74.952005 560.180007,76.5039894 558.772,78.616 C557.363993,80.7280106 556.564001,83.3519843 556.372,86.488 L584.692,86.488 Z M608.452,109.288 C604.067978,104.839978 601.876,98.5840403 601.876,90.52 C601.876,85.9759773 602.707992,81.7840192 604.372,77.944 C606.036008,74.1039808 608.595983,71.0000118 612.052,68.632 C615.508017,66.2639882 619.763975,65.08 624.82,65.08 C629.556024,65.08 633.651983,66.183989 637.108,68.392 C640.564017,70.600011 643.187991,73.5439816 644.98,77.224 C646.772009,80.9040184 647.668,84.9199782 647.668,89.272 C647.668,90.4880061 647.268004,91.5119958 646.468,92.344 C645.667996,93.1760042 644.596007,93.592 643.252,93.592 L610.708,93.592 C611.220003,98.0720224 612.883986,101.559988 615.7,104.056 C618.516014,106.552012 622.451975,107.8 627.508,107.8 C630.196013,107.8 632.54799,107.544003 634.564,107.032 C636.58001,106.519997 638.54799,105.784005 640.468,104.824 C640.980003,104.567999 641.555997,104.44 642.196,104.44 C643.220005,104.44 644.115996,104.791996 644.884,105.496 C645.652004,106.200004 646.036,107.095995 646.036,108.184 C646.036,109.592007 645.204008,110.775995 643.54,111.736 C641.043988,113.144007 638.580012,114.199996 636.148,114.904 C633.715988,115.608004 630.580019,115.96 626.74,115.96 C618.931961,115.96 612.836022,113.736022 608.452,109.288 Z M639.028,86.488 C638.835999,83.3519843 638.020007,80.7280106 636.58,78.616 C635.139993,76.5039894 633.364011,74.952005 631.252,73.96 C629.139989,72.967995 626.996011,72.472 624.82,72.472 C622.643989,72.472 620.500011,72.967995 618.388,73.96 C616.275989,74.952005 614.516007,76.5039894 613.108,78.616 C611.699993,80.7280106 610.900001,83.3519843 610.708,86.488 L639.028,86.488 Z M660.436,114.232 C659.603996,113.399996 659.188,112.376006 659.188,111.16 L659.188,48.856 C659.188,47.6399939 659.603996,46.6000043 660.436,45.736 C661.268004,44.8719957 662.291994,44.44 663.508,44.44 C664.788006,44.44 665.843996,44.8559958 666.676,45.688 C667.508004,46.5200042 667.924,47.5759936 667.924,48.856 L667.924,111.16 C667.924,112.376006 667.492004,113.399996 666.628,114.232 C665.763996,115.064004 664.724006,115.48 663.508,115.48 C662.291994,115.48 661.268004,115.064004 660.436,114.232 Z" id="GameReel" fill="#FFFFFF"></path>
        </g>
    </g>
</svg>