
<svg width="1113px" height="486px" viewBox="0 0 1113 486" version="1.1" xmlns="http://www.w3.org/2000/svg" xmlns:xlink="http://www.w3.org/1999/xlink">
    <!-- Generator: Sketch 46.2 (44496) - http://www.bohemiancoding.com/sketch -->
    <desc>Created with Sketch.</desc>
    <defs></defs>
    <g id="Page-1" stroke="none" stroke-width="1" fill="none" fill-rule="evenodd">
        <path d="" id="Path-2" stroke="#979797"></path>
        <g id="Group" transform="translate(371.000000, 115.000000)" fill="#794ACF">
            <path d="M93.3105469,113.085938 C79.7362603,116.60158 68.0176274,118.359375 58.1542969,118.359375 C39.4530315,118.359375 25.0854994,113.439991 15.0512695,103.601074 C5.01703967,93.7621578 0,79.6631777 0,61.3037109 C0,43.0907292 5.01703967,29.0771975 15.0512695,19.2626953 C25.0854994,9.44819312 39.37979,4.54101562 57.9345703,4.54101562 C69.799864,4.54101562 81.5673245,5.93260327 93.2373047,8.71582031 L93.2373047,26.3671875 C79.7118464,21.7284924 68.6035591,19.4091797 59.9121094,19.4091797 C48.4374426,19.4091797 39.5752266,23.0712524 33.3251953,30.3955078 C27.0751641,37.7197632 23.9501953,48.095636 23.9501953,61.5234375 C23.9501953,74.5117837 27.2948884,84.7045529 33.984375,92.1020508 C40.6738616,99.4995487 49.9022849,103.198242 61.6699219,103.198242 C64.2578254,103.198242 67.2851389,102.832035 70.7519531,102.099609 L70.7519531,66.4306641 L93.3105469,66.4306641 L93.3105469,113.085938 Z M157.983398,107.006836 C150.7568,113.989293 143.017619,117.480469 134.765625,117.480469 C127.73434,117.480469 122.021506,115.332053 117.626953,111.035156 C113.2324,106.73826 111.035156,101.171909 111.035156,94.3359375 C111.035156,85.4491743 114.587367,78.6010983 121.691895,73.7915039 C128.796422,68.9819095 138.964778,66.5771484 152.197266,66.5771484 L157.983398,66.5771484 L157.983398,59.2529297 C157.983398,50.9032786 153.222704,46.7285156 143.701172,46.7285156 C135.253864,46.7285156 126.709028,49.1210698 118.066406,53.90625 L118.066406,38.9648438 C127.880908,35.2538877 137.597608,33.3984375 147.216797,33.3984375 C168.261824,33.3984375 178.78418,41.7723772 178.78418,58.5205078 L178.78418,94.1162109 C178.78418,100.415071 180.810527,103.564453 184.863281,103.564453 C185.595707,103.564453 186.547846,103.466798 187.719727,103.271484 L188.232422,115.429688 C183.642555,116.796882 179.589861,117.480469 176.074219,117.480469 C167.187456,117.480469 161.474622,113.989293 158.935547,107.006836 L157.983398,107.006836 Z M157.983398,95.3613281 L157.983398,79.0283203 L152.856445,79.0283203 C138.842703,79.0283203 131.835938,83.4228076 131.835938,92.2119141 C131.835938,95.1904446 132.849111,97.692861 134.875488,99.7192383 C136.901866,101.745616 139.404282,102.758789 142.382812,102.758789 C147.460963,102.758789 152.661106,100.292993 157.983398,95.3613281 Z M206.762695,115.649414 L206.762695,35.2294922 L227.563477,35.2294922 L227.563477,50.390625 C233.911165,39.0624434 242.944277,33.3984375 254.663086,33.3984375 C260.717804,33.3984375 265.698223,34.8876804 269.604492,37.8662109 C273.510762,40.8447415 275.903316,45.0195044 276.782227,50.390625 C284.301795,39.0624434 293.383736,33.3984375 304.02832,33.3984375 C318.725659,33.3984375 326.074219,41.5038252 326.074219,57.7148438 L326.074219,115.649414 L305.273438,115.649414 L305.273438,64.8193359 C305.273438,55.297804 302.099641,50.5371094 295.751953,50.5371094 C289.25778,50.5371094 282.934601,55.2245625 276.782227,64.5996094 L276.782227,115.649414 L255.981445,115.649414 L255.981445,64.8193359 C255.981445,55.2489756 252.783235,50.4638672 246.386719,50.4638672 C239.990202,50.4638672 233.715851,55.1757341 227.563477,64.5996094 L227.563477,115.649414 L206.762695,115.649414 Z M417.700195,112.939453 C407.397409,115.966812 397.631882,117.480469 388.40332,117.480469 C374.975519,117.480469 364.379922,113.671913 356.616211,106.054688 C348.8525,98.4374619 344.970703,88.0371753 344.970703,74.8535156 C344.970703,62.4022815 348.522914,52.3804091 355.627441,44.7875977 C362.731969,37.1947863 372.119082,33.3984375 383.789062,33.3984375 C395.556699,33.3984375 404.150364,37.1093379 409.570312,44.53125 C414.990261,51.9531621 417.700195,63.6962087 417.700195,79.7607422 L367.822266,79.7607422 C369.287117,95.0928501 377.709884,102.758789 393.09082,102.758789 C400.366247,102.758789 408.56929,101.074236 417.700195,97.7050781 L417.700195,112.939453 Z M367.529297,67.5292969 L396.386719,67.5292969 C396.386719,53.8085251 391.967818,46.9482422 383.129883,46.9482422 C374.145463,46.9482422 368.94532,53.8085251 367.529297,67.5292969 Z M440.112305,115.649414 L440.112305,7.25097656 L480.688477,7.25097656 C502.710071,7.25097656 513.720703,16.2108479 513.720703,34.1308594 C513.720703,40.8203459 511.853046,46.9115936 508.117676,52.4047852 C504.382306,57.8979767 499.243197,62.1093604 492.700195,65.0390625 L528.149414,115.649414 L500.683594,115.649414 L473.803711,71.3378906 L461.352539,71.3378906 L461.352539,115.649414 L440.112305,115.649414 Z M461.352539,56.4697266 L466.552734,56.4697266 C482.910238,56.4697266 491.088867,49.8535818 491.088867,36.6210938 C491.088867,26.9530767 483.789135,22.1191406 469.189453,22.1191406 L461.352539,22.1191406 L461.352539,56.4697266 Z M609.082031,112.939453 C598.779245,115.966812 589.013718,117.480469 579.785156,117.480469 C566.357355,117.480469 555.761758,113.671913 547.998047,106.054688 C540.234336,98.4374619 536.352539,88.0371753 536.352539,74.8535156 C536.352539,62.4022815 539.90475,52.3804091 547.009277,44.7875977 C554.113805,37.1947863 563.500918,33.3984375 575.170898,33.3984375 C586.938535,33.3984375 595.532199,37.1093379 600.952148,44.53125 C606.372097,51.9531621 609.082031,63.6962087 609.082031,79.7607422 L559.204102,79.7607422 C560.668953,95.0928501 569.09172,102.758789 584.472656,102.758789 C591.748083,102.758789 599.951126,101.074236 609.082031,97.7050781 L609.082031,112.939453 Z M558.911133,67.5292969 L587.768555,67.5292969 C587.768555,53.8085251 583.349654,46.9482422 574.511719,46.9482422 C565.527299,46.9482422 560.327156,53.8085251 558.911133,67.5292969 Z M696.972656,112.939453 C686.66987,115.966812 676.904343,117.480469 667.675781,117.480469 C654.24798,117.480469 643.652383,113.671913 635.888672,106.054688 C628.124961,98.4374619 624.243164,88.0371753 624.243164,74.8535156 C624.243164,62.4022815 627.795375,52.3804091 634.899902,44.7875977 C642.00443,37.1947863 651.391543,33.3984375 663.061523,33.3984375 C674.82916,33.3984375 683.422824,37.1093379 688.842773,44.53125 C694.262722,51.9531621 696.972656,63.6962087 696.972656,79.7607422 L647.094727,79.7607422 C648.559578,95.0928501 656.982345,102.758789 672.363281,102.758789 C679.638708,102.758789 687.841751,101.074236 696.972656,97.7050781 L696.972656,112.939453 Z M646.801758,67.5292969 L675.65918,67.5292969 C675.65918,53.8085251 671.240279,46.9482422 662.402344,46.9482422 C653.417924,46.9482422 648.217781,53.8085251 646.801758,67.5292969 Z M719.384766,115.649414 L719.384766,0 L741.064453,0 L741.064453,115.649414 L719.384766,115.649414 Z" id="GameReel"></path>
        </g>
        <path d="M223.210565,53.9363654 C233.808512,51.4717266 244.351689,48.9797029 254.867482,46.5150641 C269.655314,43.0645698 269.710084,42.3525631 249.582201,28.0028883 C239.340257,20.6637417 238.491326,20.6637417 230.714021,22.4985283 C219.97915,24.9631671 209.299049,27.5099605 198.564178,29.9745993 C188.459158,32.3844684 188.021,34.438334 203.849458,48.4867752 C212.557849,56.2640798 214.392636,55.9902311 223.210565,53.9363654 Z M106.112838,81.4033955 C115.50585,79.2126055 124.981017,76.9670457 134.456184,74.7762557 C148.449855,71.4626857 148.860628,70.3946756 129.225673,56.3462345 C117.915719,48.2129264 117.915719,48.9249332 106.468841,51.608651 C97.0758289,53.8542108 87.6006619,56.0450008 78.125495,58.3179455 C64.487827,61.4945911 64.049669,62.9733743 83.3560062,76.7479667 C94.0908774,84.4431167 95.0219632,84.0323436 106.112838,81.4033955 Z M17.6870748,102.106361 C31.269973,98.5189427 30.3388873,97.4509326 15.7153637,86.9899102 C9.14299361,82.2523267 8.43098685,82.4166359 10.6217769,90.8785625 C13.4698039,101.914667 13.8805771,103.174372 17.6870748,102.106361 Z M230.084169,119.221909 C241.175044,119.221909 252.183764,119.221909 263.302023,119.221909 C277.706468,119.221909 277.843392,120.700692 262.288783,138.446091 C254.374554,147.4831 253.689932,148.112952 243.858762,148.112952 C233.315585,148.112952 222.717638,148.112952 212.201846,148.112952 C197.770016,148.112952 197.550937,146.688939 213.105546,128.88877 C221.1567,119.632682 221.457933,119.221909 230.084169,119.221909 Z M104.332821,119.221909 C116.080932,119.221909 127.801659,119.221909 139.549771,119.221909 C153.899446,119.221909 153.954215,120.782847 138.618685,138.363937 C130.704456,147.400946 132.484473,148.112952 120.599437,148.112952 C109.919335,148.112952 99.1844643,148.112952 88.4495931,148.112952 C74.0177637,148.112952 73.5248359,146.990172 89.353294,128.88877 C97.0758289,120.07084 97.705681,119.221909 104.332821,119.221909 Z M18.8372395,119.221909 C34.7204673,119.221909 35.4324741,119.851761 21.2197237,136.666074 C15.8522881,143.019365 15.3593603,142.252589 15.3593603,134.064511 C15.3593603,120.344689 15.1676662,119.221909 18.8372395,119.221909 Z M44.8254864,112.019686 C132.183239,112.019686 219.540992,112.019686 306.898745,112.019686 C319.194554,112.019686 321.24842,113.361545 321.24842,126.424131 C321.24842,181.823734 321.24842,237.195952 321.24842,292.67771 C321.24842,303.960279 321.24842,307 306.898745,307 C212.119691,307 117.340637,307 22.5889675,307 C9.71807599,307 8.15713809,304.179358 8.15713809,292.67771 C8.15713809,234.512235 8.15713809,176.456298 8.15713809,118.372977 C8.15713809,107.145179 4.13156139,94.8493694 1.50261334,83.8132646 C-1.53710784,70.8876034 -0.879870828,69.5457445 12.1827148,66.4238686 C104.49713,44.6802775 196.729391,22.9093015 288.934267,1.1657103 C302.161162,-1.9561655 302.927938,0.316779163 307.884601,18.8837248 C313.197266,38.5186805 312.129256,40.161773 298.902361,43.3384186 C205.191317,65.4380131 138.043603,80.855698 44.4968679,103.311296 C28.8053342,107.063024 28.8053342,112.019686 44.8254864,112.019686 Z M211.830439,190 L114.99285,190 C93.9642492,190 77,206.964249 77,227.99285 C77,249.02145 93.9642492,265.9857 114.99285,265.9857 C129.483146,265.9857 142.206333,257.856997 148.567926,245.840654 L178.432074,245.840654 C184.793667,257.856997 197.516854,265.9857 212.00715,265.9857 C233.035751,265.9857 250,249.02145 250,227.99285 C249.823289,206.964249 232.85904,190 211.830439,190 Z M129.659857,233.470889 L118.88049,233.470889 L118.88049,244.250255 L108.101124,244.250255 L108.101124,233.470889 L97.3217569,233.470889 L97.3217569,222.691522 L108.101124,222.691522 L108.101124,211.912155 L118.88049,211.912155 L118.88049,222.691522 L129.659857,222.691522 L129.659857,233.470889 Z M200.874362,234.707865 C197.693565,234.707865 195.219612,232.057201 195.219612,229.053115 C195.219612,226.04903 197.870276,223.398366 200.874362,223.398366 C204.055158,223.398366 206.529111,226.04903 206.529111,229.053115 C206.529111,232.057201 204.055158,234.707865 200.874362,234.707865 Z M205.822268,216.506639 C205.822268,213.325843 208.472932,210.85189 211.477017,210.85189 C214.657814,210.85189 217.131767,213.502554 217.131767,216.506639 C217.131767,219.510725 214.481103,222.161389 211.477017,222.161389 C208.296221,222.3381 205.822268,219.687436 205.822268,216.506639 Z M213.244127,245.310521 C210.06333,245.310521 207.589377,242.659857 207.589377,239.655771 C207.589377,236.651685 210.240041,234.001021 213.244127,234.001021 C216.424923,234.001021 218.898876,236.651685 218.898876,239.655771 C218.898876,242.659857 216.424923,245.310521 213.244127,245.310521 Z M223.846782,232.940756 C220.665986,232.940756 218.192033,230.290092 218.192033,227.286006 C218.192033,224.28192 220.842697,221.631256 223.846782,221.631256 C227.027579,221.631256 229.501532,224.28192 229.501532,227.286006 C229.501532,230.290092 227.027579,232.940756 223.846782,232.940756 Z" id="Combined-Shape" fill="#794ACF"></path>
    </g>
</svg>